<?xml version="1.0" encoding="utf-8"?>
<!-- Generator: Adobe Illustrator 22.0.1, SVG Export Plug-In . SVG Version: 6.00 Build 0)  -->
<svg version="1.1" id="Layer_1" xmlns="http://www.w3.org/2000/svg" xmlns:xlink="http://www.w3.org/1999/xlink" x="0px" y="0px"
	 viewBox="0 0 463.4 404.1" style="enable-background:new 0 0 463.4 404.1;" xml:space="preserve">
<style type="text/css">
	.st0{fill:#EBEFF2;}
	.st1{fill:#484848;}
	.st2{fill:#8F8F8F;}
	.st3{fill:#36404A;}
	.st4{fill:#2A3138;}
	.st5{filter:url(#Adobe_OpacityMaskFilter);}
	.st6{opacity:0.5;mask:url(#SVGID_1_);}
	.st7{fill:#333333;}
	.st8{fill:#FFFFFF;}
	.st9{fill:#B5BBC0;}
	.st10{fill:none;stroke:#FFFFFF;stroke-width:2;stroke-linecap:round;stroke-linejoin:round;stroke-miterlimit:10;}
	.st11{fill:#0CC2AA;}
	.st12{fill:none;stroke:#B5BBC0;stroke-width:0.5;stroke-miterlimit:10;}
	.st13{fill:none;stroke:#7F7F7F;stroke-width:2;stroke-linecap:round;stroke-linejoin:round;stroke-miterlimit:10;}
	.st14{fill:none;stroke:#EDEDED;stroke-width:0.7;stroke-miterlimit:10;}
	.st15{filter:url(#Adobe_OpacityMaskFilter_1_);}
	.st16{opacity:0.5;mask:url(#SVGID_2_);}
	.st17{filter:url(#Adobe_OpacityMaskFilter_2_);}
	.st18{opacity:0.5;mask:url(#SVGID_3_);}
	.st19{fill:#EEEEEE;}
	.st20{fill:#B7BF10;}
	.st21{filter:url(#Adobe_OpacityMaskFilter_3_);}
	.st22{opacity:0.5;mask:url(#SVGID_4_);}
	.st23{filter:url(#Adobe_OpacityMaskFilter_4_);}
	.st24{opacity:0.5;mask:url(#SVGID_5_);}
	.st25{filter:url(#Adobe_OpacityMaskFilter_5_);}
	.st26{opacity:0.5;mask:url(#SVGID_6_);}
	.st27{filter:url(#Adobe_OpacityMaskFilter_6_);}
	.st28{opacity:0.5;mask:url(#SVGID_7_);}
	.st29{filter:url(#Adobe_OpacityMaskFilter_7_);}
	.st30{opacity:0.5;mask:url(#SVGID_8_);}
	.st31{filter:url(#Adobe_OpacityMaskFilter_8_);}
	.st32{opacity:0.5;mask:url(#SVGID_9_);}
	.st33{fill:none;stroke:#B5BBC0;stroke-width:1.5;stroke-linecap:round;stroke-linejoin:round;stroke-miterlimit:10;}
	.st34{filter:url(#Adobe_OpacityMaskFilter_9_);}
	.st35{opacity:0.5;mask:url(#SVGID_10_);}
	.st36{filter:url(#Adobe_OpacityMaskFilter_10_);}
	.st37{opacity:0.5;mask:url(#SVGID_11_);}
	.st38{fill:#F9F9F9;}
	.st39{filter:url(#Adobe_OpacityMaskFilter_11_);}
	.st40{opacity:0.5;mask:url(#SVGID_12_);}
	.st41{filter:url(#Adobe_OpacityMaskFilter_12_);}
	.st42{opacity:0.5;mask:url(#SVGID_13_);}
	.st43{fill:none;stroke:#0CC2AA;stroke-miterlimit:10;}
	.st44{fill:none;stroke:#8F8F8F;stroke-width:3;stroke-linecap:round;stroke-miterlimit:10;}
	.st45{filter:url(#Adobe_OpacityMaskFilter_13_);}
	.st46{opacity:0.5;mask:url(#SVGID_14_);}
	.st47{filter:url(#Adobe_OpacityMaskFilter_14_);}
	.st48{opacity:0.5;mask:url(#SVGID_15_);}
	.st49{filter:url(#Adobe_OpacityMaskFilter_15_);}
	.st50{opacity:0.5;mask:url(#SVGID_16_);}
	.st51{filter:url(#Adobe_OpacityMaskFilter_16_);}
	.st52{opacity:0.5;mask:url(#SVGID_17_);}
</style>
<g>
	<g>
		<path class="st3" d="M231.7,284c-33.2,0-60.1,26.9-60.1,60.1s26.9,60.1,60.1,60.1c33.2,0,60.1-26.9,60.1-60.1S264.9,284,231.7,284
			z M231.7,379.6c-19.6,0-35.5-15.9-35.5-35.5c0-19.6,15.9-35.5,35.5-35.5c19.6,0,35.5,15.9,35.5,35.5
			C267.2,363.7,251.3,379.6,231.7,379.6z"/>
	</g>
	<g>
		<path class="st3" d="M231.7,0c-33.2,0-60.1,26.9-60.1,60.1s26.9,60.1,60.1,60.1c33.2,0,60.1-26.9,60.1-60.1S264.9,0,231.7,0z
			 M231.7,95.6c-19.6,0-35.5-15.9-35.5-35.5s15.9-35.5,35.5-35.5c19.6,0,35.5,15.9,35.5,35.5S251.3,95.6,231.7,95.6z"/>
	</g>
	<g>
		<g>
			<path class="st3" d="M60.1,0C26.9,0,0,26.9,0,60.1s26.9,60.1,60.1,60.1c33.2,0,60.1-26.9,60.1-60.1S93.3,0,60.1,0z M60.1,95.6
				c-19.6,0-35.5-15.9-35.5-35.5s15.9-35.5,35.5-35.5c19.6,0,35.5,15.9,35.5,35.5S79.7,95.6,60.1,95.6z"/>
		</g>
		<g>
			<path class="st3" d="M403.3,0c-33.2,0-60.1,26.9-60.1,60.1s26.9,60.1,60.1,60.1c33.2,0,60.1-26.9,60.1-60.1S436.5,0,403.3,0z
				 M403.3,95.6c-19.6,0-35.5-15.9-35.5-35.5s15.9-35.5,35.5-35.5c19.6,0,35.5,15.9,35.5,35.5S422.9,95.6,403.3,95.6z"/>
		</g>
	</g>
	<g>
		<rect x="106" y="48.2" class="st3" width="81.1" height="23.8"/>
	</g>
	<g>
		<rect x="275.9" y="48.2" class="st3" width="81.1" height="23.8"/>
	</g>
	<g>
		<rect x="219.8" y="110.3" class="st3" width="23.8" height="193.4"/>
	</g>
</g>
</svg>
